<?xml version="1.0" encoding="UTF-8" standalone="no"?>
<!-- Created with Inkscape (http://www.inkscape.org/) -->

<svg
   version="1.1"
   id="svg2"
   width="128"
   height="128"
   viewBox="0 0 128 128"
   sodipodi:docname="main_ico.svg"
   inkscape:version="1.2.1 (9c6d41e410, 2022-07-14, custom)"
   xmlns:inkscape="http://www.inkscape.org/namespaces/inkscape"
   xmlns:sodipodi="http://sodipodi.sourceforge.net/DTD/sodipodi-0.dtd"
   xmlns="http://www.w3.org/2000/svg"
   xmlns:svg="http://www.w3.org/2000/svg">
  <defs
     id="defs6" />
  <sodipodi:namedview
     id="namedview4"
     pagecolor="#505050"
     bordercolor="#eeeeee"
     borderopacity="1"
     inkscape:showpageshadow="0"
     inkscape:pageopacity="0"
     inkscape:pagecheckerboard="0"
     inkscape:deskcolor="#505050"
     showgrid="false"
     inkscape:zoom="4.878553"
     inkscape:cx="43.762977"
     inkscape:cy="66.003178"
     inkscape:window-width="1920"
     inkscape:window-height="1005"
     inkscape:window-x="0"
     inkscape:window-y="0"
     inkscape:window-maximized="1"
     inkscape:current-layer="g8" />
  <g
     inkscape:groupmode="layer"
     inkscape:label="Image"
     id="g8">
    <path
       style="fill:#4386f3;stroke:none;stroke-width:0.135665"
       d="m 94.595654,31.270992 c -1.95221,0.82511 -3.30208,2.98964 -5.29093,3.69985 -2.3158,0.82688 -5.21767,-0.13594 -7.59723,0.47618 -0.7543,0.19414 -1.42584,0.8783 -2.03497,1.33562 -0.48568,0.36426 -1.1735,0.73246 -1.4679,1.2838 -0.72173,1.35298 2.11502,3.99302 2.87474,5.00739 3.05653,4.07564 6.13612,8.13433 9.19265,12.20984 0.75566,1.00839 2.16521,3.83456 3.50965,4.00184 0.88861,0.11029 1.92509,-1.01857 2.57764,-1.50927 3.05788,-2.29844 2.07567,-7.18305 5.155256,-9.49654 0.90895,-0.68308 1.80163,-1.38813 2.7133,-2.06835 0.28354,-0.21191 0.6851,-0.6208 1.07311,-0.5759 0.46533,0.0537 0.83298,0.76882 1.09752,1.10133 -0.95508,0.48785 -3.66566,2.08123 -3.72264,3.25609 -0.0651,1.32368 2.0309,3.21241 2.78927,4.20548 2.78113,3.64531 5.52563,7.32088 8.27691,10.98885 1.22506,1.63341 2.4691,3.25175 3.69551,4.88394 0.45855,0.60967 0.95509,1.55227 1.84912,1.45595 0.84519,-0.0912 1.65511,-0.9506 2.3063,-1.43872 1.67817,-1.25938 3.34007,-2.53952 5.0196,-3.79862 0.69596,-0.52204 1.97392,-1.156 1.86268,-2.18787 -0.0828,-0.77003 -0.80992,-1.45351 -1.26304,-2.03497 -0.93745,-1.20525 -1.8369,-2.44129 -2.75264,-3.66295 -2.51387,-3.35201 -5.05081,-6.68706 -7.56467,-10.0392 -1.26033,-1.68157 -2.48267,-3.82874 -4.02518,-5.25308 -1.18164,-1.09142 -2.82861,0.77709 -3.75792,1.47169 -0.69189,0.51716 -1.40413,0.83543 -1.76771,-0.26495 -0.22385,-0.67819 1.70259,-1.75456 2.17471,-2.10918 l 5.15526,-3.86645 c 0.62813,-0.4713 1.67411,-1.00446 1.95222,-1.78142 0.25505,-0.70871 -0.28761,-1.36845 -0.68104,-1.89876 -0.90895,-1.22614 -1.82198,-2.44984 -2.74721,-3.66295 -1.61577,-2.11746 -3.21662,-4.24536 -4.81475,-6.37625 -0.49246,-0.65608 -1.16536,-1.97393 -2.12044,-1.97406 -0.77329,0 -1.59135,0.87816 -2.17064,1.31296 l -5.155256,3.86645 c -1.47604,1.1092 -2.3158,2.4105 -3.66295,0.59326 0.95643,-0.47604 3.82439,-2.17389 3.71993,-3.39162 -0.14381,-1.65334 -2.63054,-3.86007 -3.6019,-5.15526 -2.92494,-3.89996 -5.89193,-7.76804 -8.81822,-11.6671801 -0.90896,-1.21203 -2.22355,-3.91149 -3.65074,-4.49566 -0.89403,-0.36643 -1.78942,0.60099 -2.43654,1.08681 -1.85861,1.39504 -3.7023,2.81084 -5.56226,4.20561 -0.62677,0.47062 -1.72973,1.0161301 -1.7338,1.9166701 -0.005,0.90122 0.97543,1.76907 1.4801,2.44183 l 4.37384,5.83359 c 2.07839,2.75888 4.12692,5.54924 6.24737,8.27556 0.90624,1.16455 1.78806,2.347 2.67395,3.52729 0.388,0.5181 0.79228,1.25354 1.47468,1.40874 2.12587,0.48324 3.56663,-4.32852 5.15526,-1.13741 M 82.385824,6.0373219 c 3.13385,4.3620301 6.46036,8.5915201 9.6824,12.8881601 1.40413,1.87191 3.58426,3.91543 4.42674,6.10492 l -2.57763,1.76365 -6.19039,-8.27556 -7.91876,-10.4461901 v -0.13567 l 2.57764,-1.89931 m 7.3259,23.8770201 -9.81807,-13.02383 -4.29108,-5.83359 c 0.57386,-0.35897 1.84776,-1.8001301 2.55457,-1.5830701 0.45041,0.13865 0.79093,0.8248401 1.0609,1.1760801 0.79771,1.03498 1.58728,2.07499 2.37142,3.12029 2.51387,3.35187 5.04809,6.68773 7.56196,10.0392 0.79635,1.05995 2.73094,2.7544 2.96699,4.06791 0.14516,0.80341 -1.77856,1.82849 -2.40669,2.03701 m 24.555336,5.96925 v 0.13567 l -2.30631,1.62797 c -1.9807,-2.75711 -4.08622,-5.42455 -6.12255,-8.13989 -0.40564,-0.54076 -2.01869,-2.09765 -1.72294,-2.80826 0.23605,-0.5664 1.66189,-1.63625 2.24254,-1.20375 0.9795,0.73001 1.73379,2.22273 2.46503,3.19802 1.80163,2.40181 3.57748,4.83863 5.44423,7.19024 m -3.93428,3.12029 -4.47694,3.39162 h -0.13567 l -5.34112,-7.05457 -2.798766,-3.93428 c 1.08939,-0.67846 2.09331,-1.51904 3.120286,-2.28907 0.35273,-0.26428 0.87911,-0.83068 1.35529,-0.80856 0.82349,0.0384 1.80435,1.95126 2.25747,2.55497 1.94272,2.59106 4.57733,5.24467 6.01945,8.13989 m -14.380476,-6.24058 5.612456,7.46157 2.52743,3.52728 -4.612596,3.39162 c -2.5695,-3.57707 -6.17818,-7.0486 -8.13989,-10.98885 l 4.6126,-3.39162 m 0.54266,21.02805 c -1.37564,-0.69881 -2.41619,-2.86253 -3.36313,-4.06994 -1.92102,-2.45038 -3.69823,-5.01119 -5.61924,-7.46157 -1.14908,-1.4664 -2.82861,-3.14051 -3.4988,-4.88394 1.26983,0 2.5288,-0.10649 3.79862,-0.13769 0.47076,-0.0115 1.04462,-0.21273 1.48689,0.008 0.83705,0.41676 1.47467,1.70544 2.02276,2.43627 1.52623,2.03511 3.03075,4.08989 4.58276,6.10492 0.62541,0.81154 1.91287,1.9609 2.11637,2.98462 0.26862,1.34933 -1.21149,3.65983 -1.52623,5.0196 m -14.78747,-15.87279 c 3.33057,4.63744 6.866,9.135 10.29289,13.70216 0.81942,1.09074 1.66325,2.16114 2.47724,3.25595 0.25777,0.34798 0.7448,0.84262 0.43549,1.29302 -0.37037,0.53981 -0.91303,0.49613 -1.31188,0.0536 -0.97407,-1.07894 -1.81248,-2.35419 -2.68617,-3.51725 -3.41197,-4.54816 -7.61486,-9.03555 -10.42855,-13.97348 l 1.22098,-0.81399 m -43.00576,5.07713 c -9.42206,1.23699 -17.78444,4.18878 -24.96233,10.68306 -17.8734401,16.17098 -17.4783801,44.9265 0,61.149708 4.87728,4.52701 10.85685,7.60931 17.22943,9.4123 4.85681,1.37428 10.32369,1.74193 15.33013,1.14229 20.07433,-2.40126 35.8725,-19.17025 36.75975,-39.439128 0.87911,-20.08735 -13.56648,-38.31189 -33.23246,-42.24603 -3.53298,-0.70668 -7.52642,-1.17459 -11.12452,-0.7022 m 73.259016,2.24878 10.69989,14.24481 3.40926,4.6126 -2.7133,1.76365 c -2.92358,-4.6955 -6.73576,-9.00422 -10.05683,-13.43083 -0.8859,-1.18109 -1.79214,-2.34591 -2.67803,-3.52728 -0.33373,-0.44458 -0.99442,-1.0548 -1.07989,-1.62269 -0.11532,-0.77885 1.80977,-1.80597 2.4189,-2.04026 m -59.285536,7.59723 c -0.80178,0.37959 -1.58049,1.38609 -2.44197,1.52514 -0.64983,0.10501 -1.2937,-0.42151 -1.8993,-0.58539 -0.80857,-0.21856 -1.63544,-0.0914 -2.44197,0.0708 -1.01966,0.20512 -2.13699,0.49205 -2.97879,1.13144 -0.80952,0.6147 -1.14162,1.73176 -1.60085,2.60422 -1.01084,1.92048 -2.21785,3.55035 -0.43996,5.5643 l -3.93428,2.63149 -1.81628,1.44049 0.0526,1.62594 c -0.56138,-0.049 -1.21162,-0.36616 -1.7635,-0.16863 -1.03431,0.36996 -2.21229,2.9016 -2.03877,3.96725 0.16836,1.03363 1.0575,1.92196 1.49597,2.84896 -1.17268,0.67792 -1.77843,1.78508 -2.71872,2.70109 -1.33915,1.30428 -3.10252,2.13441 -4.07063,3.81082 -0.68877,1.1929 -0.65485,2.61481 -0.8673,3.93428 -0.17352,1.07732 -0.92266,2.18353 -0.87585,3.25596 0.12549,2.87447 3.2546,6.25401 5.68354,7.4655 3.76646,1.87869 8.21478,-2.4558 11.03593,1.62418 0.77505,1.12086 0.15249,2.478058 0.74494,3.662818 0.57766,1.15518 2.21011,1.87502 2.4984,3.12029 0.3397,1.46749 -1.6566,2.74613 -1.50276,4.34127 0.2134,2.21188 2.41497,4.86807 3.50327,6.78325 0.41324,0.7273 0.76135,1.65253 1.62852,1.93906 1.7414,0.57535 4.74095,-0.84181 6.24004,-1.63816 1.38379,-0.73476 2.60341,-1.78318 3.57206,-3.0142 1.46789,-1.86593 2.81912,-4.00645 4.16084,-5.96925 h 0.13567 c -0.12346,0.83664 -0.51824,1.60369 -0.63763,2.44196 -0.29982,2.10851 1.72702,2.38621 3.07959,1.29316 2.11502,-1.70815 3.16235,-4.25621 3.69009,-6.85542 0.19129,-0.9411 0.38664,-2.98557 -1.24812,-2.76444 -1.41905,0.19197 -2.22355,2.76607 -3.52728,3.44277 -0.007,-2.60639 -0.4477,-4.99491 0.78821,-7.461568 1.14501,-2.2831 3.4581,-3.85383 4.2029,-6.37625 0.53587,-1.8137 -0.407,-3.11486 -2.27782,-3.12029 1.19521,-2.68046 5.12542,-5.18131 5.00197,-8.41122 -0.0271,-0.6923 -0.52367,-1.1655 -0.79636,-1.76364 2.61291,0.62935 3.42283,2.21364 4.71029,4.47694 0.57929,1.01816 1.31052,2.87609 2.61562,3.10292 1.41769,0.24624 1.68495,-1.40738 1.61576,-2.4246 -0.19671,-2.87419 -1.42312,-6.26568 -0.53045,-9.08954 h 0.27133 c 5.84445,20.74912 -7.61893,43.617878 -28.89661,48.025358 -9.08738,1.88167 -18.99186,0.78007 -27.13297,-3.87717 -1.95548,-1.11856 -3.78166,-2.35663 -5.56226,-3.73635 -0.69406,-0.53764 -1.76324,-1.22152 -2.16684,-2.01923 -0.512,-1.01179 -0.39926,-3.04649 -0.54646,-4.20507 1.6524,-1.29763 0.43833,-2.89577 0.91886,-4.45198 0.28083,-0.90922 1.35705,-1.20334 1.49801,-2.33126 0.57983,-4.641228 -4.64923,-5.805638 -6.72233,-9.089548 -0.4177101,-0.66177 -0.35436,-1.55607 -0.5315301,-2.3063 -0.28653,-1.21244 -0.73748,-2.3854 -1.22981,-3.52729 -1.14623,-2.65835 -1.51225,-8.27311 -5.19338,-8.27555 1.02006,-4.14077 1.72647,-9.06906 4.35552,-12.59323 3.1095701,-4.16844 9.1103001,-3.15583 13.0095801,-5.88541 2.72089,-1.90474 4.84541,-4.5734 7.19078,-6.88866 1.12724,-1.11286 2.49773,-1.93132 3.66037,-3.00972 1.06294,-0.98574 1.986,-2.93606 3.2702,-3.58101 2.2169,-1.11354 5.85598,-0.60154 8.26335,-0.60154 1.95276,0 3.91461,0.26604 5.83359,0.62555 0.50956,0.0955 1.55282,0.11939 1.89524,0.55853 0.34594,0.44309 0.26861,1.51918 0.39614,2.07188 0.3161,1.37442 0.83298,2.63827 1.37157,3.93428 m -22.24904,-5.56226 c -1.01002,1.42991 -2.68562,2.20293 -3.93428,3.39691 -2.81436,2.69105 -5.32498,6.2414 -8.95388,7.89149 -1.84667,0.83963 -4.03508,0.71794 -5.96925,1.4641 1.12887,-1.80462 2.87433,-3.3862 4.47694,-4.76591 4.06045,-3.49608 9.08358,-6.76127 14.38047,-7.98659 m 23.47003,0.27133 c 11.11637,3.6171 20.63869,12.69362 24.284,23.87701 -2.85303,1.0605 -2.63054,4.71449 -2.17063,7.19024 -0.89539,-0.72865 -1.44619,-1.80529 -2.44197,-2.44617 -2.02141,-1.30171 -5.16069,-1.08111 -7.46157,-1.08111 -1.10974,0 -2.89644,-0.34378 -3.72128,0.58878 -0.74752,0.84641 -0.0109,1.7125 0.73666,2.20048 1.61983,1.0567 3.19083,2.24132 5.15526,2.23034 l -3.12029,4.88393 c -1.98071,-0.92618 -3.70094,-3.93075 -5.14848,-5.56226 -1.19385,-1.34539 -1.85319,-2.44292 -3.66974,-1.49231 0.86826,-1.56015 3.00091,-4.58724 -0.13566,-5.15527 0.81806,-1.11706 2.66581,-1.50181 2.6631,-3.25595 -0.001,-0.72066 -0.54266,-1.29153 -1.03512,-1.75103 -1.23591,-1.14949 -4.2531,-2.7932 -5.96926,-1.96985 -1.11245,0.53343 -1.53098,1.93838 -1.81384,3.04255 -0.17148,0.66897 -0.19834,1.54685 -1.03715,1.68333 -1.46749,0.23877 -3.02913,-2.32217 -4.47491,-2.67477 -1.03567,-0.2526 -2.09263,0.91425 -2.98463,1.27322 -1.13958,0.45868 -2.37508,0.22113 -3.52728,0.80354 -0.01,-0.46926 -0.23782,-1.16021 0.006,-1.58334 0.46791,-0.81264 3.16452,-2.46422 4.06425,-2.6996 1.71969,-0.44986 2.97635,0.17026 4.47694,-1.16726 1.03906,-0.92605 2.94949,-2.43993 3.42459,-3.77501 0.53656,-1.50778 -1.74682,-3.61682 -2.88193,-4.20561 v -0.13566 c 1.1868,0.0286 2.1644,0.86337 3.39162,0.71793 1.32274,-0.15683 2.00106,-1.21352 3.1203,-1.7593 0.83162,-0.40523 2.23711,-0.64047 2.27374,-1.8076 0.0624,-1.98477 -2.52065,-3.77392 -2.00241,-5.96925 m 53.858936,0.81399 5.1729,6.91891 8.93625,11.80284 v 0.13566 l -2.57763,1.89931 c -3.13386,-4.36217 -6.46036,-8.59138 -9.6824,-12.88816 -1.40414,-1.87095 -3.58563,-3.91732 -4.42675,-6.10492 l 2.57763,-1.76364 m -62.948486,8.68255 c -0.23226,1.01586 -0.16755,2.58007 -0.64278,3.48414 -0.19129,0.36386 -1.14366,0.49545 -1.36886,0.097 -0.18138,-0.32111 0.21829,-0.75836 0.38041,-1.00351 0.54401,-0.82226 0.89932,-1.71372 1.3599,-2.57763 h 0.27133 m -11.39585,2.11027 c -0.94341,0.14529 -2.29341,0.54225 -2.33628,1.68835 -0.0254,0.68022 0.38149,1.35637 0.20797,2.03497 -0.19739,0.77166 -0.8072,1.36316 -0.94735,2.17064 -0.37185,2.14119 2.13252,2.08042 3.61819,1.87366 0.83216,-0.11572 1.17662,-0.78088 1.52555,-1.46667 0.91275,-1.79417 0.70573,-2.6764 -0.0712,-4.47694 -0.38094,-0.88291 -0.82199,-2.00499 -1.99685,-1.82401 m 13.70215,0.87436 -0.13566,0.13566 0.13566,-0.13566 m -18.17895,1.0457 c -1.7646,0.229 -1.65634,3.58929 0.27119,3.39637 2.05207,-0.2054 1.62934,-3.64314 -0.27119,-3.39637 m 26.99717,8.45084 v 0.27133 l -3.66295,1.8993 0.67832,-3.39162 2.98463,1.22099 m -18.99308,2.17063 c -0.42382,0.76108 -1.0666,1.87164 -2.14161,1.52311 -0.53682,-0.17405 -0.7684,-1.19344 -0.24148,-1.50723 0.49355,-0.29385 1.78304,-0.002 2.38309,-0.0159 m 10.31053,1.35665 c 1.79511,0.41039 2.78967,-0.19251 4.47694,-0.67832 -0.80178,2.19831 1.09888,2.96902 2.98462,2.98463 -0.46126,0.71101 -1.94679,0.40699 -2.71329,0.40699 -2.17295,0 -3.41645,-0.0499 -4.34128,2.17064 -0.87666,-0.25247 -3.01841,-0.89797 -3.52349,-1.68143 -0.56233,-0.87192 0.15412,-1.97379 -0.95942,-2.67911 -1.0396,-0.65852 -3.18107,0.009 -4.3353,0.15493 0.26603,-0.47971 0.56246,-1.17147 1.02142,-1.49394 1.21718,-0.85496 3.09709,0.63409 4.13384,1.22261 1.22329,0.69433 2.70272,1.44008 3.25596,-0.407 m -5.96926,3.12029 c 2.7e-4,2.5174 2.37305,2.90567 4.34128,3.82847 0.71726,0.33617 1.76663,1.04584 2.57763,0.9993 1.35434,-0.0776 1.2625,-1.82917 2.19954,-2.382 1.09169,-0.64441 3.72902,-0.13946 4.9907,-0.13946 v 0.13566 c -1.77585,1.32341 0.26183,3.09316 1.164,4.34128 1.57236,2.1785 3.15285,4.35484 4.75506,6.51191 0.56708,0.76393 1.23455,2.13347 2.22083,2.39679 0.67425,0.17989 1.32409,-0.36453 1.89931,-0.63315 -0.86012,2.27035 -3.07959,3.81178 -4.0089,6.10492 -0.61185,1.51063 -0.93202,3.256368 -0.97543,4.883938 -0.0217,0.82213 0.39614,1.7749 0.16551,2.57763 -0.26047,0.90855 -1.22776,1.71507 -1.80027,2.44197 -1.05547,1.33942 -1.90338,2.78438 -2.83675,4.20561 -1.1735,1.79037 -3.03618,2.95532 -5.0603,3.56513 -0.56111,0.16904 -1.57114,0.59951 -2.08422,0.15154 -1.13158,-0.98818 -1.88181,-3.22163 -2.62593,-4.53066 -0.27364,-0.48134 -0.72594,-1.04096 -0.61565,-1.62798 0.26197,-1.39463 1.59406,-2.39204 1.49829,-3.93428 -0.12427,-2.00106 -2.08015,-2.60382 -2.81098,-4.20561 -0.20024,-0.43888 -0.0212,-1.017488 -0.0897,-1.492318 -0.17311,-1.19927 -0.59381,-2.22096 -1.42435,-3.12015 -1.2142,-1.31459 -3.02411,-2.58713 -4.87132,-2.70068 -1.57385,-0.0967 -2.94759,0.88467 -4.47694,1.04896 -2.64289,0.28408 -5.82423,-2.52961 -6.28087,-5.13166 -0.151,-0.86011 0.52231,-1.98681 0.6832,-2.84896 0.20174,-1.08057 0.10121,-2.4109 0.63464,-3.39162 0.65716,-1.20783 2.06916,-1.84844 3.06372,-2.73691 0.84438,-0.75416 1.41458,-1.88628 2.31892,-2.53978 1.84559,-1.33372 5.22269,-1.75944 7.44895,-1.77789 m -37.1721701,5.29093 c 0.89458,2.74912 2.00092,5.40136 2.8936,8.1399 0.46017,1.41186 0.28096,2.78831 1.1423,4.06994 1.07039,1.59257 2.6367801,2.84937 4.1039901,4.05855 0.88929,0.73286 1.84898,1.26779 2.14839,2.453358 0.30281,1.1986 -1.13741,1.53464 -1.48987,2.57764 -0.31067,0.9194 0.34269,1.8118 0.1103,2.69376 -0.1392,0.52855 -0.90462,0.64413 -1.19453,1.11082 -0.46438,0.74724 0.12929,1.79471 0.29005,2.57166 h -0.13567 c -1.15844,-1.75156 -2.5240401,-3.33789 -3.6016301,-5.15526 -2.70773,-4.566888 -4.49498,-9.779268 -5.0877,-15.058798 -0.23823,-2.12139 -1.11015,-5.97034 0.82077,-7.46157 m 57.7932301,4.06995 0.13567,0.27133 -0.13567,-0.27133 m 0.27133,0.40699 2.57763,2.57764 c -0.90217,0.57698 -2.47452,-1.76541 -2.57763,-2.57764 z"
       id="path342" />
    <path
       style="fill:#000000"
       id="path340"
       d="" />
  </g>
</svg>
